<?xml version="1.0" encoding="UTF-8" standalone="no"?>
<!DOCTYPE svg PUBLIC "-//W3C//DTD SVG 1.1//EN" "http://www.w3.org/Graphics/SVG/1.1/DTD/svg11.dtd">
<svg xmlns="http://www.w3.org/2000/svg" version="1.1" viewBox="0.00 0.00 768.00 167.00">
<path fill="#494949" d="
  M 131.77 0.00
  L 768.00 0.00
  L 768.00 158.03
  L 759.46 157.98
  Q 759.03 157.98 759.03 157.56
  L 759.03 9.49
  Q 759.03 9.15 758.69 9.15
  L 131.36 9.15
  A 0.39 0.39 0.0 0 1 130.97 8.80
  Q 130.38 3.74 131.77 0.00
  Z"
/>
<path fill="#494949" d="
  M 636.95 167.00
  L 0.00 167.00
  L 0.00 9.49
  L 8.66 9.01
  A 0.45 0.44 88.2 0 1 9.13 9.46
  L 9.13 157.53
  Q 9.13 157.94 9.53 157.94
  L 636.74 157.94
  A 0.41 0.41 0.0 0 1 637.15 158.36
  L 636.95 167.00
  Z"
/>
<path fill="#494949" d="
  M 65.20 97.76
  L 65.23 119.83
  Q 65.23 120.39 64.67 120.39
  L 50.80 120.39
  Q 50.22 120.39 50.22 119.80
  L 50.22 41.28
  A 0.71 0.71 0.0 0 1 50.93 40.57
  Q 65.65 40.64 81.02 40.44
  Q 93.06 40.29 98.51 42.24
  Q 113.51 47.62 116.42 63.76
  C 118.96 77.78 111.41 91.56 97.44 95.72
  Q 92.57 97.17 86.63 97.13
  Q 75.72 97.07 65.83 97.13
  Q 65.20 97.13 65.20 97.76
  Z
  M 65.22 55.23
  L 65.18 82.87
  A 0.37 0.37 0.0 0 0 65.55 83.24
  L 87.95 83.28
  A 13.97 13.43 0.1 0 0 101.94 69.87
  L 101.94 68.35
  A 13.97 13.43 0.1 0 0 87.99 54.90
  L 65.59 54.86
  A 0.37 0.37 0.0 0 0 65.22 55.23
  Z"
/>
<circle fill="#494949" cx="456.66" cy="48.54" r="8.25"/>
<rect fill="#494949" x="294.98" y="40.80" width="13.92" height="79.58" rx="0.35"/>
<path fill="#494949" d="
  M 138.43 69.55
  C 144.46 60.27 158.84 61.41 166.75 67.11
  Q 167.88 67.92 167.24 69.16
  L 161.79 79.73
  A 0.48 0.47 32.7 0 1 161.08 79.88
  Q 155.51 75.51 148.42 76.86
  Q 137.71 78.90 137.61 90.46
  Q 137.51 102.28 137.59 119.93
  A 0.43 0.43 0.0 0 1 137.16 120.36
  L 124.43 120.39
  Q 123.72 120.39 123.72 119.68
  L 123.70 64.80
  Q 123.70 64.29 124.21 64.29
  L 135.82 64.35
  Q 136.54 64.35 136.63 65.06
  L 137.21 69.27
  Q 137.45 71.05 138.43 69.55
  Z"
/>
<path fill="#494949" d="
  M 184.90 98.02
  C 186.19 105.19 192.96 108.95 199.86 109.24
  Q 209.31 109.64 216.07 104.45
  Q 216.54 104.09 216.97 104.51
  L 224.55 112.00
  Q 225.56 112.99 224.47 113.89
  Q 214.42 122.16 200.39 122.01
  C 184.62 121.85 172.70 112.81 170.67 96.64
  C 168.79 81.66 176.06 67.62 191.30 63.75
  Q 198.11 62.02 205.84 63.07
  C 223.92 65.54 229.91 80.00 228.67 96.66
  Q 228.62 97.30 227.98 97.30
  L 185.47 97.32
  Q 184.77 97.32 184.90 98.02
  Z
  M 185.67 85.87
  L 215.05 85.67
  A 0.15 0.15 0.0 0 0 215.20 85.52
  L 215.20 85.42
  A 14.69 10.43 -0.4 0 0 200.43 75.09
  L 200.13 75.09
  A 14.69 10.43 -0.4 0 0 185.52 85.62
  L 185.52 85.72
  A 0.15 0.15 0.0 0 0 185.67 85.87
  Z"
/>
<path fill="#494949" d="
  M 272.15 105.26
  C 274.01 100.13 268.57 98.05 264.49 97.87
  C 255.42 97.47 241.47 95.25 238.72 84.63
  C 236.35 75.51 241.07 68.14 249.68 64.88
  Q 258.15 61.66 269.05 63.22
  Q 277.00 64.36 283.26 69.70
  Q 283.72 70.09 283.32 70.55
  L 276.65 78.41
  Q 276.01 79.17 275.22 78.56
  Q 266.96 72.16 255.53 75.19
  C 251.49 76.26 250.36 81.32 253.87 83.64
  C 256.39 85.30 259.58 85.73 262.56 85.83
  C 272.72 86.19 285.35 89.39 286.18 101.92
  Q 287.00 114.31 275.59 119.71
  C 269.18 122.75 260.22 122.85 253.29 121.62
  Q 243.77 119.94 236.81 113.03
  A 1.20 1.19 39.9 0 1 236.67 111.50
  L 242.73 102.75
  Q 242.96 102.41 243.27 102.68
  C 249.13 107.85 259.30 111.79 267.17 109.51
  C 269.17 108.93 271.41 107.29 272.15 105.26
  Z"
/>
<path fill="#1d5eaa" d="
  M 675.59 71.58
  L 667.75 79.81
  Q 667.26 80.32 666.72 79.87
  Q 661.82 75.82 655.95 75.85
  C 645.59 75.90 639.11 84.17 640.11 94.34
  Q 641.38 107.25 654.20 108.71
  Q 661.81 109.58 667.69 104.61
  Q 668.17 104.20 668.62 104.64
  L 677.05 112.92
  Q 677.43 113.30 677.05 113.68
  C 669.61 121.06 660.14 123.30 649.87 121.75
  C 633.58 119.29 625.44 106.56 626.14 90.63
  C 626.95 72.57 639.18 62.69 656.37 62.71
  Q 667.53 62.72 675.57 70.58
  A 0.71 0.71 0.0 0 1 675.59 71.58
  Z"
/>
<path fill="#494949" d="
  M 333.55 118.60
  C 320.28 112.51 315.57 96.46 319.44 83.15
  C 326.17 60.07 356.85 56.72 370.56 74.10
  C 377.06 82.34 378.25 94.41 374.45 104.01
  C 367.92 120.46 348.84 125.63 333.55 118.60
  Z
  M 347.9274 109.0066
  A 16.63 15.38 87.7 0 0 362.6276 91.7728
  A 16.63 15.38 87.7 0 0 346.5926 75.7734
  A 16.63 15.38 87.7 0 0 331.8924 93.0072
  A 16.63 15.38 87.7 0 0 347.9274 109.0066
  Z"
/>
<path fill="#494949" d="
  M 489.63 71.24
  C 497.09 64.10 506.29 61.23 516.28 65.07
  C 525.87 68.76 530.95 78.93 531.12 88.94
  Q 531.38 104.03 531.16 120.11
  Q 531.16 120.40 530.87 120.40
  L 517.96 120.37
  A 0.60 0.60 0.0 0 1 517.36 119.76
  Q 517.41 103.77 517.30 90.45
  C 517.23 81.81 511.64 75.46 502.55 76.25
  C 494.08 76.99 489.56 84.02 489.57 92.11
  Q 489.58 106.03 489.57 119.71
  Q 489.57 120.35 488.93 120.35
  L 476.30 120.38
  Q 475.72 120.38 475.72 119.80
  L 475.70 64.77
  Q 475.70 64.23 476.23 64.23
  L 487.60 64.20
  Q 488.24 64.20 488.31 64.85
  L 488.89 70.96
  Q 488.98 71.86 489.63 71.24
  Z"
/>
<path fill="#494949" d="
  M 412.14 105.68
  Q 418.98 85.27 427.86 64.63
  Q 428.03 64.23 428.48 64.23
  L 442.67 64.20
  A 0.33 0.33 0.0 0 1 442.97 64.66
  L 419.52 120.18
  A 0.65 0.64 -78.1 0 1 418.93 120.57
  L 404.84 120.57
  Q 404.24 120.57 404.00 120.01
  L 380.77 65.28
  Q 380.32 64.22 381.47 64.22
  L 395.09 64.21
  A 0.59 0.58 -11.3 0 1 395.63 64.56
  Q 398.64 71.68 401.70 79.18
  C 405.22 87.80 408.21 96.71 411.59 105.69
  Q 411.88 106.47 412.14 105.68
  Z"
/>
<rect fill="#494949" x="449.67" y="64.22" width="14.04" height="56.16" rx="0.48"/>
<path fill="#494949" d="
  M 565.06 103.48
  Q 572.21 84.22 580.57 64.91
  Q 580.79 64.41 581.33 64.42
  L 595.78 64.44
  A 0.36 0.36 0.0 0 1 596.09 64.97
  Q 596.02 65.09 595.92 65.20
  Q 595.72 65.40 595.61 65.65
  Q 578.99 104.31 562.12 143.58
  Q 561.93 144.01 561.46 144.01
  L 547.11 144.03
  A 0.32 0.32 0.0 0 1 546.82 143.59
  L 556.93 120.06
  Q 557.13 119.58 556.94 119.11
  L 535.02 65.07
  Q 534.76 64.42 535.46 64.42
  L 550.44 64.43
  Q 551.00 64.43 551.18 64.95
  L 564.56 103.47
  Q 564.80 104.17 565.06 103.48
  Z"
/>
<path fill="#1d5eaa" d="
  M 706.03 76.94
  L 682.53 76.98
  Q 681.83 76.98 681.83 76.28
  L 681.81 64.93
  Q 681.81 64.43 682.31 64.43
  L 726.44 64.44
  Q 726.90 64.44 726.90 64.90
  C 726.87 67.25 727.44 70.19 725.95 72.24
  Q 713.93 88.80 701.44 106.21
  A 0.34 0.34 0.0 0 0 701.72 106.75
  L 726.51 106.74
  Q 727.03 106.74 727.03 107.26
  L 727.05 119.96
  Q 727.05 120.38 726.64 120.38
  L 680.46 120.38
  Q 679.76 120.38 679.79 119.68
  C 679.86 117.86 679.36 115.35 680.47 113.77
  Q 693.20 95.87 706.32 77.49
  A 0.35 0.35 0.0 0 0 706.03 76.94
  Z"
/>
<circle fill="#1d5eaa" cx="611.24" cy="113.24" r="8.24"/>
</svg>
